<svg xmlns="http://www.w3.org/2000/svg" width="20" height="16" viewBox="0 0 20 16"><g><g><path fill="#c1bdb8" d="M19.559 15.31a1.6 1.6 0 0 1-2.227.405l-6.576-4.551a1.595 1.595 0 0 1-.688-1.371 5.773 5.773 0 0 1-3.206 1.745 5.778 5.778 0 0 1-4.354-.938A5.779 5.779 0 0 1 .096 6.86a5.781 5.781 0 0 1 .937-4.356A5.827 5.827 0 0 1 9.13 1.03a5.83 5.83 0 0 1 1.915 7.344 1.598 1.598 0 0 1 1.531.159l6.578 4.55a1.6 1.6 0 0 1 .404 2.227zM9.809 5.089a4.026 4.026 0 0 0-1.681-2.61A4.064 4.064 0 0 0 2.48 3.507 4.063 4.063 0 0 0 3.51 9.15a4.063 4.063 0 0 0 5.646-1.026 4.03 4.03 0 0 0 .654-3.036z"/></g></g></svg>